<svg width="28" height="24" viewBox="0 0 28 24" fill="none" xmlns="http://www.w3.org/2000/svg">
<path d="M2.8004 21C2.40373 21 2.07146 20.856 1.8036 20.568C1.53573 20.28 1.40133 19.924 1.4004 19.5C1.39946 19.076 1.53386 18.72 1.8036 18.432C2.07333 18.144 2.4056 18 2.8004 18H25.2004C25.5971 18 25.9298 18.144 26.1986 18.432C26.4674 18.72 26.6013 19.076 26.6004 19.5C26.5995 19.924 26.4651 20.2805 26.1972 20.5695C25.9293 20.8585 25.5971 21.002 25.2004 21H2.8004ZM2.8004 13.5C2.40373 13.5 2.07146 13.356 1.8036 13.068C1.53573 12.78 1.40133 12.424 1.4004 12C1.39946 11.576 1.53386 11.22 1.8036 10.932C2.07333 10.644 2.4056 10.5 2.8004 10.5H25.2004C25.5971 10.5 25.9298 10.644 26.1986 10.932C26.4674 11.22 26.6013 11.576 26.6004 12C26.5995 12.424 26.4651 12.7805 26.1972 13.0695C25.9293 13.3585 25.5971 13.502 25.2004 13.5H2.8004ZM2.8004 6C2.40373 6 2.07146 5.856 1.8036 5.568C1.53573 5.28 1.40133 4.924 1.4004 4.5C1.39946 4.076 1.53386 3.72 1.8036 3.432C2.07333 3.144 2.4056 3 2.8004 3H25.2004C25.5971 3 25.9298 3.144 26.1986 3.432C26.4674 3.72 26.6013 4.076 26.6004 4.5C26.5995 4.924 26.4651 5.2805 26.1972 5.5695C25.9293 5.8585 25.5971 6.002 25.2004 6H2.8004Z" fill="white"/>
</svg>
