<svg width="187" height="500" viewBox="0 0 187 500" fill="none" xmlns="http://www.w3.org/2000/svg">
<g clip-path="url(#clip0_254_361)">
<path d="M93.623 150L113.123 186L93.623 222L74.123 186L93.623 150Z" fill="#2D1114"/>
<path d="M93.623 271L113.123 307L93.623 343L74.123 307L93.623 271Z" fill="#742A32"/>
<path d="M9.57976 199.055L50.5199 199.453L72.5524 233.962L31.6123 233.563L9.57976 199.055Z" fill="#742B32"/>
<path d="M114.577 259.055L155.517 259.453L177.549 293.962L136.609 293.563L114.577 259.055Z" fill="#2D1114"/>
<path d="M177.555 199.055L136.615 199.453L114.582 233.962L155.522 233.563L177.555 199.055Z" fill="#742A32"/>
<path d="M72.5491 259.055L31.609 259.453L9.57652 293.962L50.5166 293.563L72.5491 259.055Z" fill="#2D1114"/>
<path d="M187.629 500V464V428L168.129 464L187.629 500Z" fill="#2D1114"/>
<path d="M187.629 379V342.767V307L168.129 343L187.629 379Z" fill="#742A32"/>
<path d="M103.577 450.945L144.517 450.547L166.549 416.038L125.609 416.437L103.577 450.945Z" fill="#742B32"/>
<path d="M166.555 390.945L125.615 390.547L103.582 356.038L144.522 356.437L166.555 390.945Z" fill="#2D1114"/>
<path d="M187.629 193V157V121L168.129 157L187.629 193Z" fill="#2D1114"/>
<path d="M187.629 72V36V-9.53673e-07L168.129 36L187.629 72Z" fill="#742A32"/>
<path d="M103.577 143.945L144.517 143.547L166.549 109.038L125.609 109.437L103.577 143.945Z" fill="#742B32"/>
<path d="M166.555 83.9447L125.615 83.5467L103.582 49.0384L144.522 49.4365L166.555 83.9447Z" fill="#2D1114"/>
</g>
<defs>
<clipPath id="clip0_254_361">
<rect width="187" height="500" fill="white"/>
</clipPath>
</defs>
</svg>
